<svg width="53" height="52" viewBox="0 0 53 52" fill="none" xmlns="http://www.w3.org/2000/svg">
<g clip-path="url(#clip0_1_18)">
<path d="M26 2C39.2551 2.00009 50 12.7455 50 26C49.9999 39.2549 39.2549 49.9999 26 50C12.7456 50 2.00014 39.2549 2 26C2 12.7455 12.7455 2 26 2Z" fill="black" fill-opacity="0.01" stroke="white" stroke-width="2"/>
<path d="M30.6636 17.151H32.9458V13.176C32.5521 13.1219 31.1979 13 29.6208 13C26.3302 13 24.0761 15.0698 24.0761 18.874V22.375H20.4448V26.8187H24.0761V38H28.5281V26.8198H32.0125L32.5656 22.376H28.5271V19.3146C28.5281 18.0302 28.874 17.151 30.6636 17.151Z" fill="white"/>
</g>
<defs>
<clipPath id="clip0_1_18">
<rect width="53" height="52" fill="white"/>
</clipPath>
</defs>
</svg>
